<?xml version="1.0" encoding="utf-8"?>
<!-- Generator: Adobe Illustrator 16.0.0, SVG Export Plug-In . SVG Version: 6.00 Build 0)  -->
<!DOCTYPE svg PUBLIC "-//W3C//DTD SVG 1.1//EN" "http://www.w3.org/Graphics/SVG/1.1/DTD/svg11.dtd">
<svg version="1.1" id="Layer_1" xmlns="http://www.w3.org/2000/svg" xmlns:xlink="http://www.w3.org/1999/xlink" x="0px" y="0px"
	 width="544.833px" height="544.832px" viewBox="9.584 8.584 544.833 544.832" enable-background="new 9.584 8.584 544.833 544.832"
	 xml:space="preserve">
<g>
	<g>
		<circle fill="#FF4423" stroke="#FFFFFF" stroke-width="8" stroke-miterlimit="10" cx="282" cy="281" r="268.416"/>
	</g>
	<g enable-background="new    ">
		<path fill="#E3E3E3" d="M315.408,300.584c9.792,3.456,18.721,8.352,26.783,14.4c8.064,6.048,14.688,13.248,20.16,21.6
			c5.473,8.352,9.793,16.992,12.672,26.784c2.881,9.792,4.608,19.584,4.608,30.239h-13.823c0-12.096-2.018-23.039-6.336-33.407
			c-4.32-10.368-10.08-19.296-17.568-26.784s-16.416-13.536-26.496-17.855s-21.312-6.336-33.12-6.336
			c-7.775,0-15.264,0.863-22.464,2.879c-7.2,2.018-13.824,4.896-20.16,8.354c-6.336,3.744-11.808,8.063-16.992,12.96
			c-5.184,5.185-9.504,10.656-12.96,16.992s-6.336,12.96-8.352,20.159c-2.017,7.199-2.88,14.688-2.88,22.752h-13.824
			c0-10.655,1.44-20.735,4.608-30.239s7.487-18.433,12.96-26.496c5.472-8.063,12.384-15.265,20.447-21.312
			c8.064-6.049,16.704-10.944,26.784-14.688c-5.76-3.168-10.656-6.912-15.264-11.231c-4.608-4.319-8.353-9.217-11.521-14.688
			s-5.472-11.232-7.199-17.28c-1.729-6.048-2.593-12.384-2.593-18.72c0-9.792,1.729-18.72,5.473-27.359
			c3.744-8.641,8.64-15.841,14.976-22.465c6.336-6.336,13.824-11.52,22.176-14.976c8.353-3.744,17.568-5.472,27.072-5.472
			c9.792,0,18.721,1.728,27.072,5.472c8.352,3.744,15.84,8.64,22.176,14.976c6.336,6.336,11.232,13.824,14.977,22.465
			c3.744,8.64,5.472,17.567,5.472,27.359c0,6.336-0.863,12.672-2.592,18.72c-1.729,6.048-4.031,11.808-7.199,16.992
			c-3.168,5.473-6.912,10.368-11.521,14.688C326.064,293.96,320.881,297.704,315.408,300.584z M226.128,238.952
			c0,7.776,1.44,14.976,4.32,21.888s6.912,12.672,12.096,17.855c5.185,5.185,10.944,9.217,17.856,12.097
			c6.624,2.88,14.112,4.319,21.6,4.319c7.775,0,14.978-1.439,21.601-4.319c6.625-2.88,12.672-6.912,17.855-12.097
			c5.186-5.185,8.929-10.943,12.097-17.855c2.88-6.912,4.319-14.112,4.319-21.888c0-7.776-1.439-14.976-4.319-21.888
			s-6.911-12.672-12.097-17.856c-5.185-5.184-10.943-9.216-17.855-12.096c-6.623-2.88-14.111-4.32-21.601-4.32
			c-7.775,0-14.976,1.44-21.6,4.32c-6.624,2.88-12.672,6.912-17.856,12.096c-5.184,5.185-8.928,10.944-12.096,17.856
			C227.568,223.688,226.128,231.176,226.128,238.952z"/>
	</g>
</g>
</svg>
