<?xml version="1.0" encoding="utf-8"?>
<!-- Generator: Adobe Illustrator 16.0.0, SVG Export Plug-In . SVG Version: 6.00 Build 0)  -->
<!DOCTYPE svg PUBLIC "-//W3C//DTD SVG 1.1//EN" "http://www.w3.org/Graphics/SVG/1.1/DTD/svg11.dtd">
<svg version="1.1" id="Layer_1" xmlns="http://www.w3.org/2000/svg" xmlns:xlink="http://www.w3.org/1999/xlink" x="0px" y="0px"
	 width="796.187px" height="714.188px" viewBox="0 0 796.187 714.188" enable-background="new 0 0 796.187 714.188"
	 xml:space="preserve">
<g>
	<path fill-rule="evenodd" clip-rule="evenodd" fill="#252E3D" d="M698.085,467.063c-37.246,0.053-74.492,0.155-111.738,0.107
		c-6.197-0.009-12.251,0.618-18.248,2.063c-0.283-0.133-0.574-0.157-0.875-0.073c-7.42,1.23-14.839,1.232-22.259-0.001
		c-0.301-0.087-0.593-0.063-0.874,0.073c-5.843-1.38-11.729-2.057-17.769-2.052c-82.396,0.067-164.792,0.042-247.188,0.039
		c-0.999,0-2.005,0.081-2.995-0.015c-2.221-0.214-2.861,0.826-2.842,2.927c0.13,14.308,0.178,28.616,0.252,42.925
		c-0.076,21.804-0.146,43.608-0.232,65.413c-0.035,8.937-3.49,12.445-12.359,12.456c-20.813,0.025-41.626-0.021-62.438,0.02
		c-11.813,0.023-23.626,0.16-35.438,0.246c-20.154-0.086-40.309-0.183-60.463-0.254c-10.293-0.037-13.511-3.205-13.529-13.358
		c-0.061-33.821-0.132-67.642-0.199-101.463c0.067-1.827,0.192-3.654,0.192-5.481c0.011-45.486,0.003-90.973,0.013-136.459
		c0.002-8.63,3.489-12.145,12.075-12.15c24.992-0.019,49.986-0.122,74.977,0.103c4.271,0.039,5.115-1.185,5.106-5.245
		c-0.139-59.482-0.096-118.965-0.095-178.446c0-11.624,3.665-15.347,15.104-15.347c142.957,0,285.914,0.001,428.871-0.008
		c1.994,0,3.988-0.122,5.982-0.188c17.784,0.065,35.568,0.134,53.353,0.194c9.356,0.032,13.604,4.295,13.626,13.698
		c0.067,27.761,0.134,55.521,0.2,83.282c-0.066,1.99-0.191,3.98-0.191,5.971C698.09,306.382,698.088,386.723,698.085,467.063z
		 M493.314,416.173c8.962,14.619,21.408,24.975,37.608,30.737c17.249,6.061,34.427,6.333,51.515-0.634
		c13.556-4.471,24.087-13.131,32.562-24.285c7.934-10.44,13.262-22.09,14.092-35.439c1.461-6.294,1.464-12.587-0.003-18.88
		c-1.629-17.25-8.973-31.668-21.559-43.486c-20.831-19.863-45.442-26.123-72.751-17.908c-48.653,14.635-65.757,70.603-41.73,108.905
		C493.136,415.513,493.225,415.843,493.314,416.173z M539.107,285.871c11.31-1.912,22.621-1.911,33.933-0.009
		c11.335,2.294,21.879,6.636,31.897,12.337c14.587,9.674,25.899,22.307,34.096,37.752c0.291,0.776,0.562,1.56,0.875,2.326
		c15.044,36.811,10.186,70.566-15.513,101.126c-0.407,0.485-0.965,0.926-0.269,1.805c14.518,0,29.176-0.127,43.829,0.091
		c3.585,0.053,4.332-1.01,4.329-4.438c-0.097-94.463-0.095-188.927-0.006-283.39c0.003-3.32-0.574-4.497-4.245-4.495
		c-152.273,0.101-304.548,0.096-456.821,0.024c-3.108-0.001-4.208,0.586-4.2,4.008c0.117,54.978,0.109,109.957,0.014,164.936
		c-0.006,3.216,0.768,4.194,4.094,4.159c16.491-0.177,32.989,0.088,49.479-0.175c5.575-0.089,9.684,1.581,12.446,6.417
		c0.071,10.773,0.145,21.548,0.214,32.321c0.113,17.729,0.225,35.458,0.337,53.187c-0.091,7.315,0.066,14.646-0.366,21.94
		c-0.256,4.302,0.827,5.544,5.373,5.533c68.425-0.17,136.851-0.114,205.275-0.143c1.54-0.001,3.215,0.49,4.983-0.639
		c-7.62-7.939-12.886-17.115-17.715-26.577c-3.527-10.052-6.454-20.217-7.086-30.96c-0.969-16.469,2.44-32.037,9.089-47.007
		c3.281-5.248,6.563-10.495,9.846-15.743c6.802-8.117,14.46-15.305,23.196-21.314C516.441,292.769,527.368,288.298,539.107,285.871z
		 M263.024,453.413c0-33.333-0.108-66.667,0.127-99.998c0.032-4.587-1.297-5.362-5.53-5.35
		c-50.999,0.15-101.999,0.146-152.998,0.004c-4.086-0.012-5.265,0.926-5.255,5.157c0.142,66.666,0.144,133.332-0.002,199.998
		c-0.009,4.313,1.344,5.086,5.326,5.075c51.166-0.134,102.332-0.133,153.498,0c3.879,0.01,4.951-0.925,4.931-4.888
		C262.952,520.079,263.024,486.746,263.024,453.413z M181.113,579.116c3.161,0,6.324-0.047,9.484,0.014
		c3.076,0.06,5.382-0.962,5.412-4.368c0.029-3.291-1.962-5.238-5.174-5.583c-2.304-0.247-4.654-0.066-6.983-0.061
		c-3.993,0.009-7.998-0.161-11.975,0.104c-3.602,0.24-5.074,2.403-4.862,6.11c0.207,3.611,2.396,3.851,5.113,3.798
		C175.122,579.073,178.118,579.118,181.113,579.116z M186.125,334.886c-0.782-2.394-2.112-4.56-4.686-4.53
		c-2.7,0.03-4.896,1.886-4.92,4.708c-0.023,2.832,2.175,4.758,4.855,4.751C184.133,339.808,185.616,337.611,186.125,334.886z"/>
	<path fill-rule="evenodd" clip-rule="evenodd" fill="#EAEAEA" d="M631.117,122.896c-1.994,0.065-3.988,0.188-5.982,0.188
		c-142.957,0.009-285.914,0.008-428.871,0.008c-11.439,0-15.104,3.723-15.104,15.347c-0.001,59.481-0.044,118.964,0.095,178.446
		c0.009,4.061-0.835,5.284-5.106,5.245c-24.99-0.225-49.984-0.121-74.977-0.103c-8.586,0.006-12.073,3.521-12.075,12.15
		c-0.01,45.486-0.002,90.973-0.013,136.459c0,1.827-0.125,3.654-0.192,5.481c-2.739-1.11-2.837-3.952-3.603-6.106
		c-8.18-23.013-13.891-46.653-17.114-70.857c-2.685-20.156-3.01-40.503-1.88-60.706c2.143-38.324,10.808-75.272,25.877-110.717
		c12.44-29.259,28.681-56.193,48.747-80.727c25.468-31.138,55.815-56.636,90.721-76.787c27.977-16.152,57.628-27.885,88.981-35.405
		c16.91-4.056,34.043-6.488,51.412-7.915c14.82-1.218,29.641-1.293,44.361-0.573c24.816,1.213,49.264,5.403,73.218,12.403
		c20.326,5.939,39.994,13.5,58.783,23.146c22.498,11.549,43.705,25.181,62.834,41.854c5.751,5.013,11.457,10.078,17.131,15.179
		C629.562,119.988,631.026,120.996,631.117,122.896z"/>
	<path fill-rule="evenodd" clip-rule="evenodd" fill="#EAEAEA" d="M163.081,591.192c11.813-0.086,23.625-0.223,35.438-0.246
		c20.813-0.04,41.626,0.006,62.438-0.02c8.869-0.011,12.324-3.52,12.359-12.456c0.086-21.805,0.156-43.609,0.232-65.413
		c31.957,0.016,63.915,0.018,95.872,0.084c1.901,0.004,4.031-0.77,5.673,0.97c-0.281,12.256-2.382,24.328-3.678,36.48
		c-1.122,10.515-2.227,21.031-3.339,31.546c-1.337,1.47-3.108,0.902-4.707,0.918c-6.324,0.059-12.649,0.057-18.974,0.016
		c-3.451-0.022-5.273,1.468-5.305,5.054c-0.035,3.937,2.865,2.93,4.967,2.934c25.964,0.047,51.929,0.046,77.893,0.026
		c38.946-0.028,77.892-0.081,116.837-0.124c9.992-0.009,19.989-0.209,29.974,0.069c3.964,0.111,5.021-1.038,4.988-4.984
		c-0.189-22.314-0.102-44.631-0.075-66.946c0.002-1.97-0.406-4.016,0.682-5.87c0.673-0.03,1.346-0.06,2.019-0.09
		c36.314-0.012,72.63,0.047,108.944-0.117c4.802-0.021,4.903,1.317,2.868,4.963c-10.464,18.74-22.448,36.407-36.271,52.853
		c-7.923,9.427-16.146,18.565-25.117,26.981c-19.184,17.992-40.039,33.732-62.852,46.938
		c-20.656,11.959-42.283,21.627-64.992,28.831c-21.02,6.67-42.479,11.165-64.46,13.723c-18.929,2.202-37.871,2.432-56.73,1.531
		c-24.47-1.168-48.583-5.481-72.211-12.389c-20.323-5.941-39.987-13.504-58.776-23.146c-22.497-11.546-43.65-25.239-62.854-41.82
		c-6.155-5.314-12.455-10.458-18.172-16.258C164.608,594.068,163.103,593.11,163.081,591.192z"/>
	<path fill-rule="evenodd" clip-rule="evenodd" fill="#EAEAEA" d="M698.085,467.063c0.003-80.341,0.005-160.682,0.019-241.022
		c0-1.99,0.125-3.98,0.191-5.971c4.246,2.2,4.35,6.913,5.845,10.524c9.921,23.966,16.86,48.776,21.103,74.426
		c3.926,23.731,4.755,47.604,3.643,71.46c-1.163,24.979-5.411,49.605-12.606,73.68c-4.144,13.864-9.061,27.412-14.643,40.737
		c-0.758,1.809-1.744,3.521-3.551,5.157C698.085,486.392,698.085,476.728,698.085,467.063z"/>
	<path fill-rule="evenodd" clip-rule="evenodd" fill="#252E3D" d="M576.375,513.14c-0.673,0.03-1.346,0.06-2.019,0.09
		c-0.896,0.031-1.793,0.063-2.689,0.094c-10.38-0.001-20.761-0.001-31.141-0.002c-0.89-0.028-1.778-0.057-2.668-0.085
		c-0.683-0.031-1.364-0.063-2.047-0.095c-0.006-2.956-0.018-5.912-0.019-8.867c-0.002-9.265-0.001-9.265,9.056-9.315
		c7.5,0.002,15.001,0.004,22.501,0.007c9.044,0.03,9.045,0.03,9.043,9.311C576.392,507.23,576.381,510.186,576.375,513.14z"/>
	<path fill-rule="evenodd" clip-rule="evenodd" fill="#3E4959" d="M567.35,494.966c-7.5-0.003-15.001-0.005-22.501-0.007
		c0.008-8.287,0.016-16.574,0.023-24.861c0.184-0.297,0.215-0.61,0.093-0.938c7.42,1.233,14.839,1.231,22.259,0.001
		c-0.124,0.327-0.095,0.64,0.09,0.938C567.326,478.388,567.338,486.677,567.35,494.966z"/>
	<path fill-rule="evenodd" clip-rule="evenodd" fill="#EAEAEA" d="M567.314,470.099c-0.185-0.298-0.214-0.61-0.09-0.938
		c0.301-0.084,0.592-0.06,0.875,0.073C567.837,469.522,567.576,469.811,567.314,470.099z"/>
	<path fill-rule="evenodd" clip-rule="evenodd" fill="#FDFEFE" d="M273.043,328.345c-2.762-4.836-6.87-6.506-12.445-6.417
		c-16.489,0.263-32.987-0.002-49.479,0.175c-3.326,0.035-4.1-0.943-4.094-4.159c0.096-54.979,0.104-109.958-0.014-164.936
		c-0.008-3.422,1.092-4.009,4.2-4.008c152.273,0.071,304.548,0.076,456.821-0.024c3.671-0.002,4.248,1.175,4.245,4.495
		c-0.089,94.463-0.091,188.927,0.006,283.39c0.003,3.429-0.744,4.491-4.329,4.438c-14.653-0.218-29.312-0.091-43.829-0.091
		c-0.696-0.879-0.139-1.319,0.269-1.805c25.698-30.56,30.557-64.315,15.513-101.126c-0.313-0.767-0.584-1.55-0.875-2.324
		c0.055-22.394,0.063-44.789,0.217-67.184c0.021-2.943-1.101-3.603-3.793-3.58c-9.786,0.083-19.573-0.039-29.361-0.083
		c-0.01-13.463-0.063-26.926,0.008-40.388c0.014-2.525-0.303-3.996-3.428-3.933c-8.805,0.177-17.617,0.134-26.425,0.018
		c-2.604-0.035-3.506,0.864-3.449,3.457c0.114,5.148-0.036,10.302-0.078,15.452c-8.979,0.076-17.96,0.171-26.939,0.221
		c-6.563,0.037-6.555,0.011-6.571,6.343c-0.031,11.978-0.073,23.955-0.111,35.933c-9.747-0.028-19.496,0.072-29.238-0.159
		c-3.208-0.076-3.942,1.102-3.791,4.011c0.222,4.284,0.098,8.587,0.12,12.881c-8.737,6.012-16.396,13.199-23.197,21.316
		c-3.302-0.038-6.604-0.076-9.905-0.114c-0.014-1.66-0.233-3.35,0-4.975c0.606-4.225-1.149-5.352-5.246-5.212
		c-9.287,0.317-18.591,0.148-27.888,0.178c-0.036-17.159-0.164-34.319-0.033-51.477c0.027-3.497-0.97-4.604-4.488-4.495
		c-7.822,0.243-15.672,0.357-23.483-0.031c-4.617-0.229-5.807,1.182-5.776,5.771c0.184,27.153,0.031,54.309-0.009,81.463
		c-11.026-0.058-22.053-0.114-33.079-0.171c0.018-9.941-0.116-19.886,0.132-29.821c0.091-3.631-1.244-4.448-4.586-4.364
		c-8.113,0.205-16.238,0.187-24.354,0.007c-3.134-0.068-4.504,0.72-4.317,4.122c0.271,4.956,0.104,9.937,0.124,14.907
		c-11.053,0.046-22.104,0.092-33.157,0.138c-0.047-13.308-0.184-26.615-0.075-39.921c0.026-3.228-0.857-4.318-4.207-4.219
		c-8.146,0.242-16.309,0.265-24.451-0.004c-3.809-0.126-5.128,0.803-5.065,4.889C273.342,300.729,273.108,314.538,273.043,328.345z
		 M306.22,201.504c20.806,0,41.612-0.106,62.417,0.097c3.809,0.037,4.75-1.012,4.62-4.711c-0.293-8.312-0.224-16.645-0.022-24.962
		c0.073-2.992-0.62-3.923-3.799-3.913c-41.944,0.117-83.89,0.105-125.834,0.017c-2.842-0.006-3.635,0.8-3.573,3.604
		c0.178,8.152,0.303,16.32-0.036,24.462c-0.176,4.211,0.716,5.603,5.31,5.536C265.604,201.335,285.914,201.504,306.22,201.504z
		 M306.372,220.08c20.471,0,40.942-0.099,61.412,0.084c4.029,0.036,5.462-0.941,5.47-5.217c0.009-4.196-1.568-4.906-5.274-4.896
		c-40.941,0.104-81.884,0.11-122.825-0.007c-3.801-0.012-5.183,0.865-5.218,4.957c-0.036,4.361,1.569,5.192,5.522,5.159
		C265.761,219.987,286.067,220.08,306.372,220.08z M273.083,238.091c9.821,0,19.645-0.096,29.464,0.05
		c3.573,0.054,4.545-1.503,4.608-4.814c0.062-3.25-0.995-4.328-4.287-4.308c-19.477,0.124-38.954,0.146-58.43-0.014
		c-3.661-0.03-4.393,1.367-4.45,4.671c-0.063,3.563,1.204,4.553,4.63,4.483C254.103,237.967,263.594,238.092,273.083,238.091z
		 M536.631,201.113c5.482,0,10.974-0.182,16.444,0.064c3.541,0.159,4.133-1.491,4.072-4.494c-0.056-2.805-0.191-4.716-3.911-4.649
		c-11.127,0.196-22.262,0.165-33.391,0.012c-3.277-0.046-3.923,1.438-3.793,4.233c0.117,2.543-0.349,5.047,3.635,4.889
		C525.328,200.943,530.983,201.111,536.631,201.113z M618.602,201.113c5.481,0,10.972-0.177,16.442,0.063
		c3.479,0.153,4.217-1.378,4.119-4.445c-0.089-2.749-0.098-4.762-3.864-4.696c-11.126,0.194-22.261,0.194-33.388,0
		c-3.762-0.065-3.784,1.934-3.868,4.69c-0.093,3.062,0.631,4.604,4.115,4.451C607.63,200.937,613.12,201.113,618.602,201.113z
		 M454.516,192.104c-5.486,0-10.98,0.184-16.455-0.065c-3.57-0.163-4.097,1.54-4.057,4.517c0.038,2.845,0.269,4.694,3.951,4.627
		c10.802-0.196,21.611-0.167,32.415-0.013c3.302,0.048,3.883-1.492,3.777-4.264c-0.099-2.58,0.278-5.03-3.675-4.857
		C465.164,192.28,459.835,192.105,454.516,192.104z M406.272,192.513c0,9.154,0,9.154,8.697,9.154c9.697,0,9.697,0,9.697-9.644
		c0-8.838,0-8.838-8.989-8.838C406.272,183.186,406.272,183.186,406.272,192.513z M580.066,183.093c-8.98,0-8.98,0-8.98,8.925
		c0,0.166-0.002,0.332,0.001,0.498c0.156,9.997-1.352,8.512,8.8,8.598c9.235,0.079,9.236,0.017,9.236-9.164
		C589.123,183.093,589.123,183.093,580.066,183.093z M498.452,183.195c-9.555,0-9.555,0-9.555,9.738c0,8.472,0,8.472,8.354,8.472
		c9.78,0,9.78,0,9.78-9.525C507.031,183.195,507.031,183.195,498.452,183.195z"/>
	<path fill-rule="evenodd" clip-rule="evenodd" fill="#FCFCFD" d="M263.024,453.413c0,33.333-0.072,66.666,0.097,99.999
		c0.021,3.963-1.052,4.897-4.931,4.888c-51.166-0.133-102.332-0.134-153.498,0c-3.982,0.011-5.335-0.762-5.326-5.075
		c0.146-66.666,0.144-133.332,0.002-199.998c-0.01-4.231,1.169-5.169,5.255-5.157c50.999,0.143,101.999,0.146,152.998-0.004
		c4.233-0.013,5.563,0.763,5.53,5.35C262.916,386.746,263.024,420.08,263.024,453.413z M181.143,378.29
		c-7.17-0.427-13.951,1.05-20.4,4.159c-1.529,0.639-3.116,1.167-4.579,1.935c-22.928,12.026-33.935,39.678-25.666,64.403
		c8.336,24.928,33.503,40.468,59.152,36.029c11.284-1.953,21.717-6.151,29.099-15.671c1.726-0.466,2.791-1.811,3.744-3.125
		c7.351-10.123,12.42-21.048,11.593-33.972c0.19-0.457,0.533-0.908,0.55-1.37C235.621,402.979,208.862,376.786,181.143,378.29z
		 M181.75,502.102c-16.826,0-33.651,0-50.478,0c-9.294,0-9.054,0.009-9.368,9.166c-0.156,4.553,1.129,5.901,5.798,5.875
		c34.483-0.2,68.969-0.082,103.452-0.123c11.042-0.014,9.617,1.393,9.986-9.814c0.144-4.333-1.41-5.231-5.416-5.188
		C217.734,502.212,199.742,502.102,181.75,502.102z M181.623,525.092c13.648,0,27.298,0,40.947-0.001
		c5.16,0,10.32,0.005,15.48-0.014c1.353-0.005,2.805,0.003,2.875-1.903c0.071-1.902-1.31-2.036-2.709-2.076
		c-0.665-0.02-1.331-0.013-1.997-0.013c-36.453-0.001-72.907-0.017-109.36,0.052c-1.693,0.003-4.641-1.167-4.532,2.116
		c0.093,2.791,2.763,1.788,4.365,1.794C145.002,525.116,163.312,525.091,181.623,525.092z M181.045,533.099
		c18.477,0,36.952,0.024,55.429-0.045c1.602-0.006,4.189,1.004,4.376-1.804c0.197-2.975-2.447-2.115-4.055-2.117
		c-36.786-0.047-73.572-0.048-110.358,0.002c-1.601,0.002-4.237-0.898-4.129,2.047c0.105,2.848,2.706,1.868,4.308,1.874
		C144.758,533.123,162.902,533.099,181.045,533.099z M151.289,541.109c8.647,0,17.296,0.027,25.943-0.024
		c1.525-0.009,3.69,0.574,3.684-2.052c-0.006-2.258-1.897-1.91-3.323-1.912c-17.296-0.021-34.591-0.023-51.886,0.004
		c-1.407,0.002-3.327-0.419-3.44,1.804c-0.134,2.639,2.027,2.151,3.579,2.159C134.326,541.133,142.807,541.109,151.289,541.109z"/>
	<path fill-rule="evenodd" clip-rule="evenodd" fill="#FEFEFE" d="M544.873,470.098c-0.008,8.287-0.016,16.574-0.023,24.861
		c-9.057,0.051-9.058,0.051-9.056,9.315c0.001,2.955,0.013,5.911,0.019,8.867c-8.701-0.012-17.403-0.07-26.104,0.001
		c-1.883,0.016-3.976-0.742-5.61,0.938c-43.001,0.01-86.002,0.021-129.003,0.03c-1.642-1.739-3.771-0.966-5.673-0.97
		c-31.957-0.066-63.915-0.068-95.872-0.084c-0.074-14.309-0.122-28.617-0.252-42.925c-0.02-2.101,0.621-3.141,2.842-2.927
		c0.99,0.096,1.996,0.015,2.995,0.015c82.396,0.003,164.792,0.028,247.188-0.039c6.039-0.005,11.926,0.672,17.769,2.052
		C544.351,469.521,544.612,469.81,544.873,470.098z"/>
	<path fill-rule="evenodd" clip-rule="evenodd" fill="#FDFDFD" d="M493.048,415.184c-24.027-38.304-6.924-94.271,41.729-108.906
		c27.309-8.215,51.92-1.955,72.75,17.907c-7.142,0.072-14.3,0.477-21.416,0.096c-4.54-0.242-5.764,1.406-5.638,5.582
		c0.229,7.633,0.122,15.275,0.155,22.914c-14.662,0.046-29.328,0.282-43.984,0.026c-4.536-0.079-5.541,1.352-5.499,5.658
		c0.185,18.991,0.007,37.986-0.04,56.98c-12.313-0.019-24.625-0.037-36.937-0.056C493.795,415.318,493.421,415.251,493.048,415.184z
		"/>
	<path fill-rule="evenodd" clip-rule="evenodd" fill="#FDFEFE" d="M471.146,413.968c4.829,9.462,10.095,18.638,17.715,26.577
		c-1.769,1.129-3.443,0.638-4.983,0.639c-68.425,0.028-136.851-0.027-205.275,0.143c-4.546,0.011-5.629-1.231-5.373-5.533
		c0.433-7.295,0.275-14.625,0.365-21.938c10.829-0.045,21.66-0.093,32.491-0.141c11.288,0.489,22.577,0.434,33.866,0.036
		c11.088,0.493,22.178,0.373,33.269,0.061c10.961-0.033,21.922-0.066,32.884-0.1c10.957,0.038,21.913,0.077,32.87,0.115
		C449.699,413.874,460.422,413.921,471.146,413.968z"/>
	<path fill-rule="evenodd" clip-rule="evenodd" fill="#73CFF0" d="M531.106,415.441c0.047-18.994,0.225-37.989,0.04-56.98
		c-0.042-4.307,0.963-5.737,5.499-5.658c14.656,0.256,29.322,0.02,43.985-0.025c0.149,2.142,0.422,4.281,0.425,6.422
		c0.029,27.212,0.001,54.425,0.058,81.637c0.004,1.852-0.875,4.064,1.324,5.44c-17.088,6.967-34.266,6.694-51.512,0.634
		C530.987,436.421,531.046,425.932,531.106,415.441z"/>
	<path fill-rule="evenodd" clip-rule="evenodd" fill="#24B9EC" d="M582.437,446.276c-2.199-1.376-1.32-3.589-1.324-5.44
		c-0.057-27.212-0.028-54.425-0.058-81.637c-0.003-2.141-0.275-4.28-0.425-6.422c-0.034-7.64,0.073-15.282-0.156-22.915
		c-0.126-4.176,1.098-5.824,5.638-5.582c7.116,0.381,14.274-0.023,21.416-0.096c12.587,11.819,19.931,26.237,21.56,43.483
		c0.001,6.291,0.002,12.588,0.003,18.884c-0.83,13.35-6.158,24.999-14.092,35.439C606.524,433.146,595.993,441.806,582.437,446.276z
		"/>
	<path fill-rule="evenodd" clip-rule="evenodd" fill="#24B9EC" d="M306.085,413.714c-10.831,0.049-21.662,0.097-32.491,0.142
		c-0.111-17.731-0.223-35.461-0.336-53.189c-0.069-10.773-0.143-21.548-0.215-32.321c0.064-13.807,0.299-27.615,0.086-41.417
		c-0.063-4.086,1.257-5.015,5.065-4.889c8.143,0.269,16.306,0.246,24.451,0.004c3.35-0.1,4.233,0.991,4.207,4.219
		c-0.108,13.306,0.028,26.613,0.075,39.921c-1.446,1.562-0.805,3.488-0.808,5.245C306.077,358.856,306.087,386.285,306.085,413.714z
		"/>
	<path fill-rule="evenodd" clip-rule="evenodd" fill="#73CFF0" d="M471.146,413.968c-10.724-0.047-21.447-0.094-32.172-0.14
		c0.04-32.654,0.065-65.309,0.156-97.963c0.005-1.91-0.755-4.015,0.825-5.73c9.297-0.029,18.601,0.14,27.888-0.178
		c4.097-0.14,5.853,0.987,5.246,5.212c-0.233,1.625-0.014,3.314,0,4.975c0.02,5.286,0.039,10.571,0.06,15.857
		c-6.648,14.97-10.058,30.538-9.089,47.007C464.692,393.751,467.619,403.916,471.146,413.968z"/>
	<path fill-rule="evenodd" clip-rule="evenodd" fill="#24B9EC" d="M572.723,239.713c0.042-5.15,0.192-10.304,0.078-15.452
		c-0.057-2.593,0.846-3.492,3.449-3.457c8.808,0.116,17.62,0.159,26.425-0.018c3.125-0.063,3.441,1.407,3.428,3.933
		c-0.07,13.462-0.018,26.925-0.008,40.388c-0.001,9.326,0.028,18.653-0.032,27.979c-0.011,1.747,0.651,3.724-1.126,5.113
		c-10.019-5.701-20.563-10.043-31.897-12.337C572.918,270.479,573.531,255.092,572.723,239.713z"/>
	<path fill-rule="evenodd" clip-rule="evenodd" fill="#2CAAE0" d="M604.937,298.199c1.777-1.39,1.115-3.366,1.126-5.113
		c0.061-9.326,0.031-18.653,0.032-27.979c9.788,0.044,19.575,0.166,29.361,0.083c2.692-0.022,3.813,0.637,3.793,3.58
		c-0.154,22.395-0.162,44.79-0.217,67.184C630.836,320.506,619.524,307.873,604.937,298.199z"/>
	<path fill-rule="evenodd" clip-rule="evenodd" fill="#73CFF0" d="M572.723,239.713c0.808,15.379,0.195,30.767,0.316,46.149
		c-11.312-1.902-22.623-1.903-33.933,0.009c-0.002-1.221-0.004-2.441-0.006-3.662c0.038-11.978,0.08-23.955,0.111-35.933
		c0.017-6.332,0.008-6.306,6.571-6.343C554.763,239.884,563.744,239.789,572.723,239.713z"/>
	<path fill-rule="evenodd" clip-rule="evenodd" fill="#2CAAE0" d="M531.106,415.441c-0.06,10.49-0.119,20.979-0.181,31.469
		c-16.203-5.763-28.649-16.118-37.612-30.739c0.285-0.263,0.57-0.524,0.856-0.785C506.481,415.404,518.793,415.423,531.106,415.441z
		"/>
	<path fill-rule="evenodd" clip-rule="evenodd" fill="#2CAAE0" d="M539.101,282.209c0.002,1.221,0.004,2.441,0.006,3.662
		c-11.739,2.427-22.666,6.897-32.915,13.071c-0.022-4.295,0.102-8.598-0.12-12.882c-0.151-2.909,0.583-4.087,3.791-4.011
		C519.605,282.281,529.354,282.181,539.101,282.209z"/>
	<path fill-rule="evenodd" clip-rule="evenodd" fill="#3E4959" d="M181.113,579.117c-2.995,0.001-5.991-0.044-8.984,0.014
		c-2.718,0.053-4.906-0.187-5.113-3.798c-0.212-3.707,1.261-5.87,4.862-6.11c3.977-0.266,7.981-0.096,11.975-0.104
		c2.329-0.006,4.68-0.187,6.983,0.061c3.212,0.345,5.203,2.292,5.174,5.583c-0.03,3.406-2.336,4.428-5.412,4.368
		C187.437,579.069,184.274,579.116,181.113,579.117z"/>
	<path fill-rule="evenodd" clip-rule="evenodd" fill="#24B9EC" d="M473.149,336.001c-0.021-5.286-0.04-10.571-0.06-15.857
		c3.302,0.038,6.604,0.076,9.905,0.114C479.712,325.506,476.43,330.753,473.149,336.001z"/>
	<path fill-rule="evenodd" clip-rule="evenodd" fill="#3E4959" d="M186.125,334.886c-0.51,2.726-1.992,4.922-4.75,4.929
		c-2.681,0.007-4.879-1.919-4.855-4.751c0.023-2.822,2.22-4.678,4.92-4.708C184.013,330.326,185.343,332.492,186.125,334.886z"/>
	<path fill-rule="evenodd" clip-rule="evenodd" fill="#73CFF0" d="M629.09,386.552c-0.001-6.296-0.002-12.593-0.003-18.884
		C630.554,373.965,630.551,380.258,629.09,386.552z"/>
	<path fill-rule="evenodd" clip-rule="evenodd" fill="#73CFF0" d="M494.169,415.386c-0.286,0.261-0.571,0.522-0.856,0.785
		c-0.088-0.328-0.177-0.658-0.265-0.988C493.421,415.251,493.795,415.318,494.169,415.386z"/>
	<path fill-rule="evenodd" clip-rule="evenodd" fill="#EAEAEA" d="M544.873,470.098c-0.261-0.288-0.521-0.576-0.781-0.864
		c0.281-0.136,0.573-0.16,0.874-0.073C545.087,469.487,545.056,469.801,544.873,470.098z"/>
	<path fill-rule="evenodd" clip-rule="evenodd" fill="#CBCAC9" d="M375.094,514.111c43.001-0.01,86.002-0.021,129.003-0.03
		c1.116,11.189,2.202,22.383,3.356,33.568c1.188,11.511,2.441,23.014,3.666,34.521c-47.681-0.011-95.361-0.021-143.042-0.032
		c1.112-10.515,2.217-21.031,3.339-31.546C372.712,538.439,374.813,526.367,375.094,514.111z"/>
	<path fill-rule="evenodd" clip-rule="evenodd" fill="#3E4959" d="M537.859,513.236c0.89,0.028,1.778,0.057,2.664,0.084
		c10.379,0.896,20.762,0.89,31.145,0.003c0.896-0.031,1.793-0.063,2.689-0.094c-1.088,1.854-0.68,3.9-0.682,5.87
		c-0.026,22.315-0.114,44.632,0.075,66.946c0.033,3.946-1.024,5.096-4.988,4.984c-9.984-0.278-19.981-0.078-29.976-0.068
		c-0.188-2.631-0.373-5.263-0.56-7.894c0.085-22.649,0.175-45.298,0.228-67.946C538.457,514.494,538.066,513.865,537.859,513.236z"
		/>
	<path fill-rule="evenodd" clip-rule="evenodd" fill="#FDFEFE" d="M538.227,583.068c0.187,2.631,0.372,5.263,0.56,7.894
		c-38.943,0.042-77.889,0.095-116.835,0.123c-25.964,0.02-51.929,0.021-77.893-0.026c-2.102-0.004-5.002,1.003-4.967-2.934
		c0.031-3.586,1.854-5.076,5.305-5.054c6.324,0.041,12.649,0.043,18.974-0.016c1.599-0.016,3.37,0.552,4.707-0.918
		c47.681,0.011,95.361,0.021,143.041,0.031c1.351,1.433,3.112,0.876,4.708,0.887C523.293,583.105,530.76,583.071,538.227,583.068z"
		/>
	<path fill-rule="evenodd" clip-rule="evenodd" fill="#EAEAEA" d="M538.227,583.068c-7.467,0.003-14.934,0.037-22.4-0.013
		c-1.596-0.011-3.357,0.546-4.708-0.887c-1.224-11.506-2.478-23.009-3.665-34.52c-1.154-11.186-2.24-22.379-3.356-33.568
		c1.635-1.681,3.728-0.923,5.61-0.938c8.701-0.071,17.403-0.013,26.104-0.001c0.683,0.031,1.364,0.063,2.047,0.095
		c0.207,0.629,0.598,1.258,0.596,1.886C538.402,537.771,538.312,560.419,538.227,583.068z"/>
	<path fill-rule="evenodd" clip-rule="evenodd" fill="#898F98" d="M571.667,513.323c-10.383,0.887-20.766,0.893-31.145-0.003
		C550.907,513.322,561.288,513.322,571.667,513.323z"/>
	<path fill-rule="evenodd" clip-rule="evenodd" fill="#2CAAE0" d="M439.956,310.135c-1.58,1.716-0.82,3.82-0.825,5.73
		c-0.091,32.654-0.116,65.309-0.156,97.963c-10.957-0.039-21.913-0.078-32.87-0.116c0.004-0.565,0.009-1.131,0.014-1.696
		c1.238-1.01,0.89-2.425,0.891-3.714c0.017-20.475,0.017-40.949,0-61.425c-0.001-1.289,0.345-2.703-0.893-3.713
		c0.017-0.6,0.033-1.199,0.05-1.799c0.04-27.154,0.192-54.31,0.009-81.463c-0.03-4.589,1.159-6,5.776-5.771
		c7.812,0.389,15.661,0.274,23.483,0.031c3.519-0.109,4.516,0.998,4.488,4.495C439.792,275.815,439.919,292.976,439.956,310.135z"/>
	<path fill-rule="evenodd" clip-rule="evenodd" fill="#252E3D" d="M306.22,201.504c-20.307,0-40.616-0.169-60.918,0.129
		c-4.594,0.066-5.485-1.325-5.31-5.536c0.339-8.142,0.214-16.31,0.036-24.462c-0.062-2.804,0.731-3.609,3.573-3.604
		c41.944,0.089,83.89,0.101,125.834-0.017c3.179-0.01,3.872,0.921,3.799,3.913c-0.201,8.317-0.271,16.65,0.022,24.962
		c0.13,3.699-0.812,4.748-4.62,4.711C347.833,201.397,327.026,201.504,306.22,201.504z M280.584,180.778
		c-7.145,0-14.297,0.188-21.432-0.08c-3.446-0.13-4.308,1.167-3.985,4.269c0.258,2.482-0.881,5.204,3.683,5.119
		c14.784-0.276,29.578-0.25,44.362-0.01c4.199,0.067,3.431-2.384,3.521-4.803c0.099-2.65,0.248-4.773-3.722-4.593
		C295.55,181.021,288.062,180.778,280.584,180.778z"/>
	<path fill-rule="evenodd" clip-rule="evenodd" fill="#73CFF0" d="M373.22,413.812c-11.091,0.313-22.181,0.433-33.269-0.061
		c0.045-29.235,0.089-58.471,0.134-87.706c-0.02-4.971,0.146-9.951-0.124-14.907c-0.187-3.402,1.184-4.19,4.317-4.122
		c8.115,0.18,16.24,0.198,24.354-0.007c3.342-0.084,4.677,0.733,4.586,4.364c-0.248,9.936-0.114,19.88-0.132,29.82
		C373.131,365.399,373.175,389.605,373.22,413.812z"/>
	<path fill-rule="evenodd" clip-rule="evenodd" fill="#30ACE1" d="M340.085,326.045c-0.045,29.235-0.089,58.471-0.134,87.706
		c-11.289,0.397-22.578,0.453-33.866-0.036c0.002-27.43-0.009-54.858,0.035-82.287c0.003-1.757-0.639-3.684,0.808-5.245
		C317.981,326.137,329.033,326.091,340.085,326.045z"/>
	<path fill-rule="evenodd" clip-rule="evenodd" fill="#24B9EC" d="M373.22,413.812c-0.045-24.206-0.089-48.412-0.134-72.618
		c11.026,0.058,22.053,0.114,33.079,0.172c-0.017,0.6-0.033,1.199-0.05,1.798c0.001,22.95,0.001,45.901,0.002,68.853
		c-0.005,0.565-0.01,1.131-0.014,1.696C395.142,413.745,384.181,413.778,373.22,413.812z"/>
	<path fill-rule="evenodd" clip-rule="evenodd" fill="#E6E5E5" d="M306.372,220.08c-20.305,0-40.61-0.093-60.913,0.08
		c-3.953,0.033-5.559-0.798-5.522-5.159c0.035-4.092,1.417-4.969,5.218-4.957c40.941,0.117,81.884,0.111,122.825,0.007
		c3.706-0.01,5.283,0.7,5.274,4.896c-0.008,4.275-1.44,5.253-5.47,5.217C347.314,219.981,326.842,220.08,306.372,220.08z"/>
	<path fill-rule="evenodd" clip-rule="evenodd" fill="#E6E5E5" d="M273.083,238.091c-9.489,0.001-18.98-0.124-28.465,0.068
		c-3.426,0.069-4.692-0.92-4.63-4.483c0.058-3.304,0.789-4.701,4.45-4.671c19.476,0.159,38.953,0.138,58.43,0.014
		c3.292-0.021,4.349,1.058,4.287,4.308c-0.063,3.312-1.035,4.868-4.608,4.814C292.728,237.995,282.905,238.091,273.083,238.091z"/>
	<path fill-rule="evenodd" clip-rule="evenodd" fill="#E6E5E5" d="M536.631,201.112c-5.648-0.001-11.304-0.169-16.943,0.056
		c-3.983,0.158-3.518-2.346-3.635-4.889c-0.13-2.796,0.516-4.279,3.793-4.233c11.129,0.153,22.264,0.185,33.391-0.012
		c3.72-0.066,3.855,1.845,3.911,4.649c0.061,3.003-0.531,4.653-4.072,4.494C547.605,200.932,542.114,201.113,536.631,201.112z"/>
	<path fill-rule="evenodd" clip-rule="evenodd" fill="#E6E5E5" d="M618.602,201.113c-5.482,0-10.972-0.177-16.443,0.063
		c-3.484,0.153-4.208-1.39-4.115-4.451c0.084-2.757,0.106-4.756,3.868-4.69c11.127,0.194,22.262,0.194,33.388,0
		c3.767-0.065,3.775,1.947,3.864,4.696c0.098,3.067-0.64,4.599-4.119,4.445C629.574,200.937,624.083,201.113,618.602,201.113z"/>
	<path fill-rule="evenodd" clip-rule="evenodd" fill="#E6E5E5" d="M454.516,192.105c5.319,0,10.647,0.175,15.957-0.057
		c3.953-0.173,3.576,2.277,3.675,4.857c0.105,2.771-0.476,4.312-3.777,4.264c-10.804-0.154-21.613-0.184-32.415,0.013
		c-3.683,0.067-3.913-1.782-3.951-4.627c-0.04-2.977,0.486-4.68,4.057-4.517C443.536,192.288,449.03,192.104,454.516,192.105z"/>
	<path fill-rule="evenodd" clip-rule="evenodd" fill="#30ACE1" d="M406.272,192.513c0-9.327,0-9.327,9.405-9.327
		c8.989,0,8.989,0,8.989,8.838c0,9.644,0,9.644-9.697,9.644C406.272,201.667,406.272,201.667,406.272,192.513z"/>
	<path fill-rule="evenodd" clip-rule="evenodd" fill="#E6E5E5" d="M580.066,183.093c9.057,0,9.057,0,9.057,8.856
		c0,9.181-0.001,9.243-9.236,9.164c-10.151-0.086-8.644,1.399-8.8-8.598c-0.003-0.166-0.001-0.332-0.001-0.498
		C571.085,183.093,571.085,183.093,580.066,183.093z"/>
	<path fill-rule="evenodd" clip-rule="evenodd" fill="#24B9EC" d="M498.452,183.195c8.579,0,8.579,0,8.579,8.685
		c0,9.525,0,9.525-9.78,9.525c-8.354,0-8.354,0-8.354-8.472C488.897,183.195,488.897,183.195,498.452,183.195z"/>
	<path fill-rule="evenodd" clip-rule="evenodd" fill="#30ACE1" d="M218.75,469.146c-7.384,9.52-17.816,13.718-29.101,15.671
		c-25.649,4.438-50.816-11.102-59.152-36.029c-8.269-24.726,2.738-52.377,25.666-64.403c1.463-0.768,3.05-1.296,4.578-1.932
		c2.815,6.773,5.633,13.543,8.45,20.313c-1.158,0.649-2.325,1.284-3.473,1.952c-13.536,7.88-19.187,24.453-13.273,38.92
		c5.919,14.48,21.56,22.205,36.782,18.392c5.637-1.411,9.847-5.269,14.812-7.812C208.944,459.193,213.847,464.17,218.75,469.146z"/>
	<path fill-rule="evenodd" clip-rule="evenodd" fill="#CBCAC9" d="M181.75,502.102c17.992,0,35.984,0.11,53.975-0.085
		c4.006-0.043,5.56,0.855,5.416,5.188c-0.369,11.207,1.056,9.801-9.986,9.814c-34.483,0.041-68.969-0.077-103.452,0.123
		c-4.669,0.026-5.954-1.322-5.798-5.875c0.314-9.157,0.074-9.166,9.368-9.166C148.098,502.102,164.923,502.102,181.75,502.102z"/>
	<path fill-rule="evenodd" clip-rule="evenodd" fill="#161D29" d="M181.143,378.29c27.719-1.504,54.478,24.689,53.492,52.389
		c-0.017,0.462-0.359,0.913-0.55,1.37c-7.261-0.104-14.521-0.208-21.782-0.312c-0.469-12.832-6.359-22.192-17.738-28.233
		c-4.259-2.262-8.891-2.147-13.398-2.911C181.159,393.158,181.151,385.725,181.143,378.29z"/>
	<path fill-rule="evenodd" clip-rule="evenodd" fill="#E6E5E5" d="M212.303,431.737c7.261,0.104,14.521,0.207,21.782,0.312
		c0.827,12.924-4.242,23.849-11.593,33.972c-0.953,1.314-2.019,2.659-3.743,3.125c-4.902-4.976-9.806-9.952-14.709-14.928
		c0.269-0.758,0.34-1.692,0.836-2.246C210.044,446.2,212.294,439.387,212.303,431.737z"/>
	<path fill-rule="evenodd" clip-rule="evenodd" fill="#E6E5E5" d="M181.623,525.091c-18.311,0-36.62,0.025-54.931-0.044
		c-1.603-0.006-4.272,0.997-4.365-1.794c-0.108-3.283,2.839-2.113,4.532-2.116c36.453-0.068,72.907-0.053,109.36-0.052
		c0.666,0,1.332-0.007,1.997,0.013c1.399,0.04,2.78,0.174,2.709,2.076c-0.07,1.906-1.522,1.898-2.875,1.903
		c-5.16,0.019-10.32,0.014-15.48,0.014C208.92,525.092,195.271,525.092,181.623,525.091z"/>
	<path fill-rule="evenodd" clip-rule="evenodd" fill="#E6E5E5" d="M181.045,533.099c-18.144,0-36.287,0.024-54.43-0.043
		c-1.602-0.006-4.202,0.974-4.308-1.874c-0.108-2.945,2.528-2.045,4.129-2.047c36.786-0.05,73.572-0.049,110.358-0.002
		c1.607,0.002,4.252-0.857,4.055,2.117c-0.187,2.808-2.774,1.798-4.376,1.804C217.998,533.123,199.522,533.099,181.045,533.099z"/>
	<path fill-rule="evenodd" clip-rule="evenodd" fill="#3E4959" d="M181.143,378.29c0.008,7.435,0.016,14.868,0.023,22.303
		c-4.147-0.138-8.076,0.937-11.975,2.173c-2.817-6.771-5.635-13.54-8.45-20.313C167.192,379.34,173.973,377.863,181.143,378.29z"/>
	<path fill-rule="evenodd" clip-rule="evenodd" fill="#E6E5E5" d="M151.289,541.109c-8.481,0-16.963,0.023-25.443-0.021
		c-1.552-0.008-3.713,0.479-3.579-2.159c0.113-2.223,2.033-1.802,3.44-1.804c17.295-0.027,34.59-0.025,51.886-0.004
		c1.426,0.002,3.317-0.346,3.323,1.912c0.007,2.626-2.158,2.043-3.684,2.052C168.584,541.137,159.936,541.109,151.289,541.109z"/>
	<path fill-rule="evenodd" clip-rule="evenodd" fill="#73CFF0" d="M406.118,412.016c-0.001-22.951-0.001-45.902-0.002-68.853
		c1.237,1.011,0.892,2.425,0.893,3.714c0.017,20.476,0.017,40.95,0,61.425C407.007,409.591,407.356,411.006,406.118,412.016z"/>
	<path fill-rule="evenodd" clip-rule="evenodd" fill="#FCFCFD" d="M280.584,180.778c7.478,0,14.966,0.243,22.428-0.098
		c3.97-0.181,3.82,1.942,3.722,4.593c-0.091,2.419,0.678,4.87-3.521,4.803c-14.784-0.24-29.578-0.267-44.362,0.01
		c-4.563,0.085-3.425-2.637-3.683-5.119c-0.322-3.102,0.539-4.398,3.985-4.269C266.288,180.966,273.44,180.778,280.584,180.778z"/>
	<path fill-rule="evenodd" clip-rule="evenodd" fill="#FDFDFD" d="M169.192,402.766c3.898-1.236,7.827-2.311,11.975-2.173
		c4.508,0.764,9.14,0.649,13.398,2.911c11.379,6.041,17.27,15.401,17.738,28.233c-0.009,7.649-2.259,14.463-7.427,20.234
		c-0.496,0.554-0.567,1.488-0.836,2.246c-4.966,2.543-9.176,6.4-14.813,7.812c-15.223,3.813-30.863-3.911-36.782-18.392
		c-5.913-14.467-0.263-31.04,13.273-38.92C166.867,404.05,168.034,403.415,169.192,402.766z"/>
</g>
</svg>
